<?xml version="1.0" encoding="UTF-8"?>
<svg id="katman_1" xmlns="http://www.w3.org/2000/svg" version="1.1" viewBox="0 0 3401.6 3401.6">
  <!-- Generator: Adobe Illustrator 30.0.0, SVG Export Plug-In . SVG Version: 2.1.1 Build 123)  -->
  <defs>
    <style>
      .st0 {
        fill: #fff;
      }
    </style>
  </defs>
  <path class="st0" d="M526.9,2414c13.3,118.9,114,211.3,236.5,211.3h326.9c64.6,0,125.7-29.7,165.6-80.6l14.4-18.4h861.2l14.4,18.4c39.9,50.9,100.9,80.6,165.6,80.6h326.9c122.4,0,223.1-92.4,236.5-211.3H526.9Z"/>
  <g>
    <path class="st0" d="M587.53,2416.82c0,16.23,13.15,29.38,29.38,29.38h101.18v8.38c0,18.14,14.74,32.88,32.88,32.88h152.62c18.14,0,32.88-14.74,32.88-32.88v-8.38h1360.65v8.38c0,18.14,14.74,32.88,32.88,32.88h152.62c18.14,0,32.88-14.74,32.88-32.88v-8.38h101.18c16.23,0,29.38-13.15,29.38-29.38v-76.89H587.53v76.89Z"/>
    <path class="st0" d="M820.87,1738.13l-52.08,52.08c-11.35,11.35-11.35,29.91,0,41.26s29.91,11.35,41.26,0l52.08-52.08c11.35-11.35,11.35-29.91,0-41.26-11.35-11.35-29.91-11.35-41.26,0Z"/>
    <path class="st0" d="M1204.7,1738.13c-11.35-11.35-29.91-11.35-41.26,0-11.35,11.35-11.35,29.91,0,41.26l52.08,52.08c11.35,11.35,29.91,11.35,41.26,0,11.35-11.35,11.35-29.91,0-41.26l-52.08-52.08Z"/>
    <path class="st0" d="M2541.6,1216.53h-562.86c-23.23,0-42.11,18.88-42.11,42.11v704.56c0,23.23,18.88,42.11,42.11,42.11h562.86c23.23,0,42.11-18.88,42.11-42.11v-704.56c0-23.23-18.88-42.11-42.11-42.11h0ZM2033.78,1964.57l226.44-337.38h-190.59l377.26-370.05-157.18,303.23h196.95l-452.77,404.09-.11.11h0Z"/>
    <path class="st0" d="M2913.87,1819.38h-59.92v-4.03c0-16.86-13.68-30.55-30.55-30.55h-31.18v-820.91c0-27.47-22.27-49.74-49.74-49.74H491.44c-27.47,0-49.74,22.27-49.74,49.74v1293.94c0,27.47,22.27,49.74,49.74,49.74h2251.03c27.47,0,49.74-22.27,49.74-49.74v-7.74h31.18c16.86,0,30.55-13.68,30.55-30.55v-4.03h59.92c25.45,0,46.03-20.58,46.03-46.03v-57.59c0-25.45-20.58-46.03-46.03-46.03h-59.92v-4.03c0-16.86-13.68-30.55-30.55-30.55h-31.18v-27.68h31.18c16.86,0,30.55-13.68,30.55-30.55v-4.03h59.92c25.45,0,46.03-20.58,46.03-46.03v-57.59c0-25.45-20.58-46.03-46.03-46.03h0ZM815.46,1883.97c-54.73,0-99.06-44.33-99.06-99.06s44.33-99.06,99.06-99.06,99.06,44.33,99.06,99.06-44.33,99.06-99.06,99.06ZM1210.11,1883.97c-54.73,0-99.06-44.33-99.06-99.06s44.33-99.06,99.06-99.06,99.06,44.33,99.06,99.06-44.33,99.06-99.06,99.06ZM1338.23,1508.83h-210.95c-3.71-60.03-53.45-107.55-114.44-107.55s-28.74,2.76-41.58,7.85l-90.89-90.89c-5.41-5.41-14.21-5.41-19.62,0s-5.41,14.21,0,19.62l85.06,85.06c-27.05,19.52-45.18,50.48-47.41,85.8h-210.95v-187.3c0-63.53,51.55-115.08,115.08-115.08h420.74c63.53,0,115.08,51.55,115.08,115.08v187.3l-.11.11h0ZM2650.73,1963.19c0,60.24-48.89,109.14-109.14,109.14h-562.86c-60.24,0-109.14-48.89-109.14-109.14v-704.56c0-60.24,48.89-109.14,109.14-109.14h562.86c60.24,0,109.14,48.89,109.14,109.14v704.56h0Z"/>
  </g>
</svg>