<?xml version="1.0" encoding="UTF-8"?>
<svg id="katman_1" data-name="katman 1" xmlns="http://www.w3.org/2000/svg" version="1.1" viewBox="0 0 3401.6 3401.6">
  <defs>
    <style>
      .cls-1 {
        fill: #fff;
        stroke-width: 0px;
      }
    </style>
  </defs>
  <path class="cls-1" d="M526.9,2414c13.3,118.9,114,211.3,236.5,211.3h326.9c64.6,0,125.7-29.7,165.6-80.6l14.4-18.4h861.2l14.4,18.4c39.9,50.9,100.9,80.6,165.6,80.6h326.9c122.4,0,223.1-92.4,236.5-211.3H526.9Z"/>
  <path class="cls-1" d="M642.9,1470.9l-117.6-39.3v104.3h105.7v49.6h-105.7v46.9h105.7v49.6h-105.7v46.9h105.7v49.6h-105.7v46.9h105.7v49.6h-105.7v46.9h105.7v49.6h-105.7v46.9h105.7v49.6h-105.7v46.9h105.7v49.6h-105.7v104.3l117.6-39.3c30.4-10.2,50.9-38.6,50.9-70.6v-617.2c0-32-20.5-60.5-50.9-70.6Z"/>
  <path class="cls-1" d="M2876.3,1535.9v-104.3l-117.6,39.3c-30.4,10.2-50.9,38.6-50.9,70.6v617.2c0,32,20.5,60.5,50.9,70.6l117.6,39.3v-104.3h-105.7v-49.6h105.7v-46.9h-105.7v-49.6h105.7v-46.9h-105.7v-49.6h105.7v-46.9h-105.7v-49.6h105.7v-46.9h-105.7v-49.6h105.7v-46.9h-105.7v-49.6h105.7v-46.9h-105.7v-49.6h105.7Z"/>
  <path class="cls-1" d="M2746.4,1434.1l129.9-43.4v-84.9c0-292.5-237.1-529.6-529.6-529.6h-1291.9c-292.5,0-529.6,237.1-529.6,529.6v84.9l129.9,43.4c46.3,15.5,77.4,58.6,77.4,107.4v617.2c0,48.8-31.1,92-77.4,107.4l-129.9,43.4v58.1c0,7.6.4,15.1,1.1,22.5h2348.8c.7-7.4,1.1-14.9,1.1-22.5v-58.1l-129.9-43.4c-46.3-15.5-77.4-58.6-77.4-107.4v-617.2c0-48.8,31.1-92,77.4-107.4ZM2487.1,2248c0,45.4-36.8,82.2-82.2,82.2H996.7c-45.4,0-82.2-36.8-82.2-82.2v-258.1c0-45.4,36.8-82.2,82.2-82.2h1408.2c45.4,0,82.2,36.8,82.2,82.2v258.1ZM1418.6,1795.3v-280.8h564.4v280.8h-564.4ZM2126.7,1572.9v-87.6h137.7v87.6h-137.7ZM2650,1364.3H751.6c-49,0-90.6-18.8-117.2-53-26.6-34.2-34.6-79.3-22.4-126.9,53.4-209.4,241.6-355.7,457.7-355.7h1262.2c216.1,0,404.3,146.3,457.7,355.7,12.1,47.6,4.2,92.7-22.4,126.9-26.5,34.2-68.2,53-117.2,53ZM2767,1190.2c-50.7-199.1-229.6-338.1-435.1-338.1h-1262.2c-205.4,0-384.3,139-435.1,338.1-10.3,40.5-3.8,78.4,18.2,106.8,22,28.3,57.1,44,98.7,44h1898.4c41.6,0,76.7-15.6,98.7-44,22.1-28.4,28.6-66.3,18.2-106.8ZM2524.1,1117.7c0,40.4-32.7,73.1-73.1,73.1H950.5c-40.4,0-73.1-32.7-73.1-73.1v-27.2c0-86.4,70.1-156.5,156.5-156.5h1333.8c86.4,0,156.5,70.1,156.5,156.5v27.2Z"/>
  <g>
    <rect class="cls-1" x="1076.7" y="1998.4" width="95.5" height="53" rx=".9" ry=".9"/>
    <path class="cls-1" d="M1124.4,2258.3h0c-14.1,0-25.6-11.4-25.6-25.6v-29.2c0-14.1,11.4-25.6,25.6-25.6h0c14.1,0,25.6,11.4,25.6,25.6v29.2c0,14.1-11.4,25.6-25.6,25.6Z"/>
    <circle class="cls-1" cx="1124.4" cy="2125.7" r="100" transform="translate(-670.9 525.7) rotate(-20.4)"/>
  </g>
  <g>
    <rect class="cls-1" x="2229.4" y="1998.4" width="95.5" height="53" rx=".9" ry=".9"/>
    <path class="cls-1" d="M2277.2,2258.3h0c-14.1,0-25.6-11.4-25.6-25.6v-29.2c0-14.1,11.4-25.6,25.6-25.6h0c14.1,0,25.6,11.4,25.6,25.6v29.2c0,14.1-11.4,25.6-25.6,25.6Z"/>
    <circle class="cls-1" cx="2277.2" cy="2125.7" r="100" transform="translate(-96.3 108.1) rotate(-2.7)"/>
  </g>
  <path class="cls-1" d="M1347.3,2095.6c-30.4,0-55.1-24.7-55.1-55.1s24.7-55.1,55.1-55.1,55.1,24.7,55.1,55.1-24.7,55.1-55.1,55.1ZM1347.3,2008.8c-17.5,0-31.7,14.2-31.7,31.7s14.2,31.7,31.7,31.7,31.7-14.2,31.7-31.7-14.2-31.7-31.7-31.7Z"/>
  <path class="cls-1" d="M1347.3,2266.8c-30.4,0-55.1-24.7-55.1-55.1s24.7-55.1,55.1-55.1,55.1,24.7,55.1,55.1-24.7,55.1-55.1,55.1ZM1347.3,2179.9c-17.5,0-31.7,14.2-31.7,31.7s14.2,31.7,31.7,31.7,31.7-14.2,31.7-31.7-14.2-31.7-31.7-31.7Z"/>
  <path class="cls-1" d="M2073.9,2087.6c-26,0-47.1-21.1-47.1-47.1s21.1-47.1,47.1-47.1,47.1,21.1,47.1,47.1-21.1,47.1-47.1,47.1ZM2073.9,2016.7c-13.1,0-23.8,10.7-23.8,23.8s10.7,23.7,23.8,23.7,23.7-10.6,23.7-23.7-10.6-23.8-23.7-23.8Z"/>
  <path class="cls-1" d="M2073.9,2258.8c-26,0-47.1-21.1-47.1-47.1s21.1-47.1,47.1-47.1,47.1,21.1,47.1,47.1-21.1,47.1-47.1,47.1ZM2073.9,2187.9c-13.1,0-23.8,10.6-23.8,23.7s10.7,23.8,23.8,23.8,23.7-10.7,23.7-23.8-10.6-23.7-23.7-23.7Z"/>
  <rect class="cls-1" x="1507.3" y="2008.5" width="100.7" height="32.6"/>
  <rect class="cls-1" x="1507.3" y="2080.6" width="100.7" height="32.6"/>
  <rect class="cls-1" x="1507.3" y="2152.7" width="100.7" height="32.6"/>
  <rect class="cls-1" x="1507.3" y="2225.8" width="100.7" height="32.6"/>
  <path class="cls-1" d="M1791.6,2089.5h18.6v-43.4h-18.6v43.4ZM1846.6,2046.1v43.4h18.6v-43.4h-18.6Z"/>
  <path class="cls-1" d="M1905.5,1974.8h-153.6c-23.6,0-42.7,19.1-42.7,42.7v202.9c0,23.6,19.1,42.7,42.7,42.7h153.6c23.6,0,42.7-19.1,42.7-42.7v-202.9c0-23.6-19.1-42.7-42.7-42.7ZM1828.7,2229.2c-17.8,0-32.3-14.5-32.3-32.3s14.5-32.3,32.3-32.3,32.3,14.5,32.3,32.3-14.5,32.3-32.3,32.3ZM1909.3,2098.6l-21.9,21.9h-117.9l-21.9-21.9v-61.5l21.9-21.9h117.9l21.9,21.9v61.5Z"/>
  <path class="cls-1" d="M1566.4,1744.2h52.9v-177.7h-52.9v177.7ZM1643.9,1744.2h52.9v-177.7h-52.9v177.7ZM1721.4,1744.2h52.9v-177.7h-52.9v177.7ZM1799,1566.5v177.7h52.9v-177.7h-52.9ZM1534.2,1686.5h20.8v-62.4h-20.8v62.4Z"/>
</svg>