<?xml version="1.0" encoding="UTF-8"?>
<svg id="katman_1" data-name="katman 1" xmlns="http://www.w3.org/2000/svg" version="1.1" viewBox="0 0 1000 1000">
  <defs>
    <style>
      .cls-1 {
        fill: #fff;
        stroke-width: 0px;
      }
    </style>
  </defs>
  <path class="cls-1" d="M566.7,431.8c-2.9,0-5.2,2.3-5.2,5.2s2.3,5.2,5.2,5.2,5.2-2.3,5.2-5.2-2.3-5.2-5.2-5.2Z"/>
  <path class="cls-1" d="M414.9,442.2c2.9,0,5.2-2.3,5.2-5.2s-2.3-5.2-5.2-5.2-5.2,2.3-5.2,5.2,2.3,5.2,5.2,5.2Z"/>
  <path class="cls-1" d="M490.5,391.4c5.2,0,9.5-4.3,9.5-9.5s-4.3-9.5-9.5-9.5-9.5,4.3-9.5,9.5,4.3,9.5,9.5,9.5Z"/>
  <path class="cls-1" d="M543,638.2v-298.7h-104.2v298.7h104.2ZM490.5,364.4c9.6,0,17.4,7.8,17.4,17.4s-7.8,17.4-17.4,17.4-17.4-7.8-17.4-17.4,7.8-17.4,17.4-17.4Z"/>
  <path class="cls-1" d="M759.4,375.7h-4.3v-36.1h-207.8v298.7h207.8v-25.6h-1.7s7,0,7,0h0s-.9,0-.9,0v25.6h179v-298.7h-179v36.1ZM602.6,452c0,.7-.6,1.2-1.2,1.2h-46.3c-.7,0-1.2-.6-1.2-1.2v-30.1c0-.7.6-1.2,1.2-1.2h46.3c.7,0,1.2.6,1.2,1.2v30.1ZM789.5,587.1v-5.7c0-.8.6-1.4,1.4-1.4h100.2c.8,0,1.4.6,1.4,1.4v7.1c0,.4-.4.8-.8.8h-101.3c-.4,0-.8-.4-.8-.8v-1.4ZM789.5,598.9v-5.7c0-.8.6-1.4,1.4-1.4h100.2c.8,0,1.4.6,1.4,1.4v7.1c0,.4-.4.8-.8.8h-101.3c-.4,0-.8-.4-.8-.8v-1.4ZM789.5,610.7v-5.7c0-.8.6-1.4,1.4-1.4h100.2c.8,0,1.4.6,1.4,1.4v7.1c0,.4-.4.8-.8.8h-101.3c-.4,0-.8-.4-.8-.8v-1.4ZM789.5,622.5v-5.7c0-.8.6-1.4,1.4-1.4h100.2c.8,0,1.4.6,1.4,1.4v7.1c0,.4-.4.8-.8.8h-101.3c-.4,0-.8-.4-.8-.8v-1.4ZM760.3,409.6h-.9v169.2h-4.3v-169.2h-1.7s7,0,7,0h0Z"/>
  <path class="cls-1" d="M184.6,298.7v-5.8c0-1-.8-1.8-1.8-1.8h-52.8c-1,0-1.8.8-1.8,1.8v5.8H61.6v410.9h876.9v-69H61.6v-2.3h162.4v-25.6h-1.3s7,0,7,0h0s-1.3,0-1.3,0v25.6h206.2v-298.7h-206.2v36.1h-4.3v-36.1H61.6v-4.3h876.9v-36.6H184.6ZM379.1,422c0-.7.6-1.2,1.2-1.2h46.3c.7,0,1.2.6,1.2,1.2v30.1c0,.7-.6,1.2-1.2,1.2h-46.3c-.7,0-1.2-.6-1.2-1.2v-30.1ZM293.5,368.4c0-.7.6-1.4,1.4-1.4h57.3c.7,0,1.4.6,1.4,1.4v34.3c0,.7-.6,1.4-1.4,1.4h-57.3c-.7,0-1.4-.6-1.4-1.4v-34.3ZM222.6,409.5h7s-1.3,0-1.3,0v169.2h-4.3v-169.2h-1.3Z"/>
</svg>