<?xml version="1.0" encoding="UTF-8"?>
<svg id="katman_1" data-name="katman 1" xmlns="http://www.w3.org/2000/svg" version="1.1" viewBox="0 0 3401.6 3401.6">
  <defs>
    <style>
      .cls-1 {
        fill: #fff;
        stroke-width: 0px;
      }
    </style>
  </defs>
  <g>
    <rect class="cls-1" x="1346.8" y="451" width="427.8" height="275.7"/>
    <rect class="cls-1" x="2036" y="451" width="427.8" height="275.7"/>
    <rect class="cls-1" x="2036" y="952.4" width="427.8" height="275.7"/>
    <rect class="cls-1" x="1346.8" y="952.4" width="427.8" height="275.7"/>
    <rect class="cls-1" x="724.2" y="1898.2" width="1067" height="61.8"/>
  </g>
  <g>
    <path class="cls-1" d="M858.4,2745.4c0-20.1,2.6-39.6,7.5-58.2h-170.3v87.9h164.8c-1.3-9.7-2-19.6-2-29.7Z"/>
    <path class="cls-1" d="M2594.4,2668.2v-55.8h-101v74.9h-236.5v-166.3h-42.8v166.3h-213.9v-1283.3h-40.4v-515.7h413.5v-85.6h-912.5v85.6h413.5v515.7h-26.1v1283.3h-541c4.9,18.6,7.5,38.1,7.5,58.2s-.7,20-2,29.7h901.5v134.3h-29.7v41.6h101v-41.6h-28.5v-134.3h337.5v-55.8h95.1v-51.1h-95.1Z"/>
  </g>
  <path class="cls-1" d="M1086.6,2565.4c-99.4,0-180,80.6-180,180s80.6,180,180,180,180-80.6,180-180-80.6-180-180-180ZM1086.6,2861.3c-64,0-115.9-51.9-115.9-115.9s51.9-115.9,115.9-115.9,115.9,51.9,115.9,115.9-51.9,115.9-115.9,115.9Z"/>
  <path class="cls-1" d="M1732,1991.6h-362.1v623.7h362.1v-623.7ZM1677.7,2252.9c0,15.4-12.6,27.9-27.9,27.9h-181.8c-15.4,0-27.9-12.6-27.9-27.9v-181.8c0-15.4,12.6-27.9,27.9-27.9h181.8c15.4,0,27.9,12.6,27.9,27.9v181.8Z"/>
  <g>
    <path class="cls-1" d="M1321.4,1990.5h-360.9l1.3,564.7c35.4-22.6,79.7-37.9,124.8-37.9,77.2,0,145.3,38.3,186.6,97h48.2v-623.7Z"/>
    <path class="cls-1" d="M724.2,1964.8v684.4h155.6c17.1-36.6,43.6-68,76.4-90.9v-571.9h369.4v632.1h-49.5c6.5,9.7,12.4,20,17.4,30.7h497.8v-684.4H724.2ZM1735.9,2619.5h-369.4v-632.1h369.4v632.1Z"/>
  </g>
</svg>