<?xml version="1.0" encoding="UTF-8"?>
<svg id="katman_1" xmlns="http://www.w3.org/2000/svg" version="1.1" viewBox="0 0 3401.6 3401.6">
  <!-- Generator: Adobe Illustrator 29.7.1, SVG Export Plug-In . SVG Version: 2.1.1 Build 8)  -->
  <defs>
    <style>
      .st0 {
        fill: #fff;
      }
    </style>
  </defs>
  <path class="st0" d="M508.89,2467.4c0,17.37,14.08,31.45,31.45,31.45h108.33v8.97c0,19.42,15.78,35.2,35.2,35.2h163.4c19.42,0,35.2-15.78,35.2-35.2v-8.97h1456.78v8.97c0,19.42,15.78,35.2,35.2,35.2h163.4c19.42,0,35.2-15.78,35.2-35.2v-8.97h108.33c17.37,0,31.45-14.08,31.45-31.45v-82.33H508.89v82.33Z"/>
  <path class="st0" d="M758.7,1740.77l-55.75,55.75c-12.15,12.15-12.15,32.02,0,44.17,12.15,12.15,32.02,12.15,44.17,0l55.75-55.75c12.15-12.15,12.15-32.02,0-44.17-12.15-12.15-32.02-12.15-44.17,0Z"/>
  <path class="st0" d="M1169.65,1740.77c-12.15-12.15-32.02-12.15-44.17,0-12.15,12.15-12.15,32.02,0,44.17l55.75,55.75c12.15,12.15,32.02,12.15,44.17,0,12.15-12.15,12.15-32.02,0-44.17l-55.75-55.75Z"/>
  <path class="st0" d="M2601,1182.31h-602.63c-24.87,0-45.08,20.21-45.08,45.08v754.34c0,24.87,20.21,45.08,45.08,45.08h602.63c24.87,0,45.08-20.21,45.08-45.08v-754.34c0-24.87-20.21-45.08-45.08-45.08h0ZM2057.3,1983.21l242.44-361.21h-204.06l403.91-396.19-168.29,324.65h210.87l-484.76,432.64-.11.11h0Z"/>
  <path class="st0" d="M2999.57,1827.75h-64.16v-4.32c0-18.06-14.65-32.7-32.7-32.7h-33.38v-878.9c0-29.41-23.85-53.26-53.26-53.26H406.01c-29.41,0-53.26,23.85-53.26,53.26v1385.35c0,29.41,23.85,53.26,53.26,53.26h2410.06c29.41,0,53.26-23.85,53.26-53.26v-8.29h33.38c18.05,0,32.7-14.65,32.7-32.7v-4.32h64.16c27.25,0,49.28-22.03,49.28-49.28v-61.66c0-27.25-22.03-49.28-49.28-49.28h-64.16v-4.32c0-18.06-14.65-32.7-32.7-32.7h-33.38v-29.64h33.38c18.05,0,32.7-14.65,32.7-32.7v-4.32h64.16c27.25,0,49.28-22.03,49.28-49.28v-61.66c0-27.25-22.03-49.28-49.28-49.28h0ZM752.91,1896.91c-58.59,0-106.06-47.47-106.06-106.06s47.47-106.06,106.06-106.06,106.06,47.47,106.06,106.06-47.47,106.06-106.06,106.06ZM1175.45,1896.91c-58.59,0-106.06-47.47-106.06-106.06s47.47-106.06,106.06-106.06,106.06,47.47,106.06,106.06-47.47,106.06-106.06,106.06ZM1312.62,1495.27h-225.86c-3.97-64.27-57.23-115.14-122.52-115.14s-30.77,2.95-44.51,8.4l-97.32-97.32c-5.79-5.79-15.22-5.79-21.01,0s-5.79,15.22,0,21.01l91.07,91.07c-28.96,20.89-48.37,54.05-50.76,91.86h-225.86v-200.54c0-68.02,55.19-123.21,123.21-123.21h450.47c68.02,0,123.21,55.19,123.21,123.21v200.54l-.11.11h0ZM2717.84,1981.73c0,64.5-52.35,116.85-116.85,116.85h-602.63c-64.5,0-116.85-52.35-116.85-116.85v-754.34c0-64.5,52.35-116.85,116.85-116.85h602.63c64.5,0,116.85,52.35,116.85,116.85v754.34h0Z"/>
</svg>