<?xml version="1.0" encoding="UTF-8"?>
<svg id="katman_1" data-name="katman 1" xmlns="http://www.w3.org/2000/svg" version="1.1" viewBox="0 0 3401.6 3401.6">
  <defs>
    <style>
      .cls-1 {
        fill: #fff;
        stroke-width: 0px;
      }
    </style>
  </defs>
  <path class="cls-1" d="M2756.2,2303.2c23.5,0,45.9,4.7,66.5,13v-1256.2H579.7v1252.2c17.4-5.8,36-9,55.4-9,97.8,0,177.5,79.6,177.5,177.4s-.3,12.2-.9,18.1h1768c-.6-6-.9-12-.9-18.1,0-97.8,79.6-177.4,177.5-177.4ZM2547.5,1725.4h166.2c9.6,0,17.5,7.9,17.5,17.5s-7.9,17.5-17.5,17.5h-166.2c-9.6,0-17.5-7.9-17.5-17.5s7.9-17.5,17.5-17.5ZM2547.5,1786.6h166.2c9.6,0,17.5,7.9,17.5,17.5s-7.9,17.5-17.5,17.5h-166.2c-9.6,0-17.5-7.9-17.5-17.5s7.9-17.5,17.5-17.5ZM2547.5,1847.9h166.2c9.6,0,17.5,7.9,17.5,17.5s-7.9,17.5-17.5,17.5h-166.2c-9.6,0-17.5-7.9-17.5-17.5s7.9-17.5,17.5-17.5ZM2547.5,1909.1h166.2c9.6,0,17.5,7.9,17.5,17.5s-7.9,17.5-17.5,17.5h-166.2c-9.6,0-17.5-7.9-17.5-17.5s7.9-17.5,17.5-17.5ZM2547.5,1970.4h166.2c9.6,0,17.5,7.9,17.5,17.5s-7.9,17.5-17.5,17.5h-166.2c-9.6,0-17.5-7.9-17.5-17.5s7.9-17.5,17.5-17.5ZM2547.5,2031.6h166.2c9.6,0,17.5,7.9,17.5,17.5s-7.9,17.5-17.5,17.5h-166.2c-9.6,0-17.5-7.9-17.5-17.5s7.9-17.5,17.5-17.5ZM2547.5,2092.8h166.2c9.6,0,17.5,7.9,17.5,17.5s-7.9,17.5-17.5,17.5h-166.2c-9.6,0-17.5-7.9-17.5-17.5s7.9-17.5,17.5-17.5ZM2547.5,2154.1h166.2c9.6,0,17.5,7.9,17.5,17.5s-7.9,17.5-17.5,17.5h-166.2c-9.6,0-17.5-7.9-17.5-17.5s7.9-17.5,17.5-17.5ZM738.9,1240c0-19,15.4-34.4,34.4-34.4h977.9c19,0,34.4,15.4,34.4,34.4v311.5c0,19-15.4,34.4-34.4,34.4h-977.9c-19,0-34.4-15.4-34.4-34.4v-311.5ZM2446.4,2166.5c0,84.6-68.8,153.3-153.3,153.3H880.1c-84.6,0-153.3-68.8-153.3-153.3v-357.2c0-84.6,68.8-153.3,153.3-153.3h1412.9c84.6,0,153.3,68.8,153.3,153.3v357.2ZM2530,2232.8c0-9.6,7.9-17.5,17.5-17.5h166.2c9.6,0,17.5,7.9,17.5,17.5s-7.9,17.5-17.5,17.5h-166.2c-9.6,0-17.5-7.9-17.5-17.5Z"/>
  <path class="cls-1" d="M2293,1680.1H880.1c-71.2,0-129.1,57.9-129.1,129.1v357.2c0,71.2,57.9,129.1,129.1,129.1h1412.9c71.2,0,129.1-57.9,129.1-129.1v-357.2c0-71.2-57.9-129.1-129.1-129.1ZM1006.8,2111.7c0,28.2-22.9,51.1-51.1,51.1h-48.6c-28.2,0-51.1-22.9-51.1-51.1v-247.7c0-28.2,22.9-51.1,51.1-51.1h48.6c28.2,0,51.1,22.9,51.1,51.1v247.7Z"/>
  <rect class="cls-1" x="2152.5" y="768.1" width="384" height="66.5"/>
  <path class="cls-1" d="M2979.1,1183.4h-132.2v140.3h132.2c38.7,0,70.1-31.4,70.1-70.2s-31.4-70.1-70.1-70.1Z"/>
  <path class="cls-1" d="M555.4,1183.4h-132.2c-38.7,0-70.1,31.4-70.1,70.1s31.4,70.2,70.1,70.2h132.2v-140.3Z"/>
  <polygon class="cls-1" points="2846.8 1482.5 2846.8 2250.5 2959.7 2250.5 2959.7 1685.8 2880.3 1482.5 2846.8 1482.5"/>
  <polygon class="cls-1" points="555.4 1482.5 522 1482.5 442.6 1685.8 442.6 2250.5 555.4 2250.5 555.4 1482.5"/>
  <path class="cls-1" d="M2822.6,874.4c0-7.8-6.3-14.1-14.1-14.1H593.8c-7.8,0-14.1,6.3-14.1,14.1v160.3h2242.9v-160.3Z"/>
  <path class="cls-1" d="M975.9,1837.1h-89.1c-3.7,0-6.7,3-6.7,6.7v288.1c0,3.7,3,6.7,6.7,6.7h89.1c3.7,0,6.7-3,6.7-6.7v-288.1c0-3.7-3-6.7-6.7-6.7Z"/>
  <path class="cls-1" d="M882.5,1496.7c.6,13.7,11.9,24.6,25.8,24.6s25.1-10.9,25.8-24.6c43.3-11.4,75.3-50.8,75.3-97.7s-21.4-71.7-52.8-88.8v-36.2c0-2-1.6-3.6-3.6-3.6h-89.2c-2,0-3.6,1.6-3.6,3.6v36.2c-31.5,17.1-52.8,50.5-52.8,88.8s32,86.3,75.3,97.7Z"/>
  <path class="cls-1" d="M1159.4,1496.7c.6,13.7,11.9,24.6,25.8,24.6s25.1-10.9,25.8-24.6c43.3-11.4,75.3-50.8,75.3-97.7s-21.4-71.7-52.8-88.8v-36.2c0-2-1.6-3.6-3.6-3.6h-89.2c-2,0-3.6,1.6-3.6,3.6v36.2c-31.5,17.1-52.8,50.5-52.8,88.8s32,86.3,75.3,97.7Z"/>
  <path class="cls-1" d="M1611.1,1526c71.8,0,130.2-58.4,130.2-130.2s-58.4-130.3-130.2-130.3-130.2,58.4-130.2,130.3,58.4,130.2,130.2,130.2ZM1604.9,1501.6c2.1.1,4.2.2,6.3.2s4.2,0,6.3-.2c-2.1.1-4.2.2-6.3.2s-4.2,0-6.3-.2ZM1603,1501.4c-1.5-.1-2.9-.3-4.4-.4,1.5.2,2.9.3,4.4.4ZM1596.6,1500.7c-1.5-.2-3-.5-4.5-.7,1.5.3,3,.5,4.5.7ZM1630.2,1500c-1.5.3-3,.5-4.5.7,1.5-.2,3-.5,4.5-.7ZM1623.7,1501c-1.4.2-2.9.3-4.4.4,1.5-.1,2.9-.3,4.4-.4ZM1611.1,1289.7c58.6,0,106,47.5,106,106s-17.4,66.8-44.1,86.1c10.4-7.5,19.4-16.8,26.5-27.5-15-22.5-38.3-39-65.6-45l21.4-91.1-54.1,89.1c-32.8,3-61.2,21-78.4,47,7.1,10.7,16.1,20,26.5,27.5-26.7-19.2-44.1-50.6-44.1-86.1,0-58.6,47.5-106,106-106ZM1631.8,1499.7c2-.4,4-.8,6-1.4-2,.5-4,1-6,1.4ZM1637.9,1498.3c1.9-.5,3.9-1.1,5.8-1.7-1.9.6-3.8,1.2-5.8,1.7ZM1645,1496.2c1.5-.5,3.1-1.1,4.6-1.7-1.5.6-3,1.1-4.6,1.7ZM1650.9,1494c1.7-.7,3.4-1.4,5.1-2.2-1.7.8-3.4,1.5-5.1,2.2ZM1656.4,1491.6c3.8-1.8,7.5-3.8,11.1-6.1-3.6,2.2-7.3,4.3-11.1,6.1ZM1667.8,1485.3c1.7-1.1,3.3-2.2,5-3.3-1.6,1.2-3.3,2.3-5,3.3ZM1590.5,1499.7c-2-.4-4-.9-6-1.4,2,.5,4,1,6,1.4ZM1584.4,1498.3c-1.9-.5-3.9-1.1-5.8-1.7,1.9.6,3.8,1.2,5.8,1.7ZM1577.3,1496.2c-1.5-.5-3.1-1.1-4.6-1.7,1.5.6,3,1.1,4.6,1.7ZM1571.4,1494c-1.7-.7-3.4-1.4-5.1-2.2,1.7.8,3.4,1.5,5.1,2.2ZM1565.9,1491.6c-3.8-1.8-7.5-3.8-11.1-6.1,3.6,2.2,7.3,4.3,11.1,6.1ZM1554.5,1485.3c-1.7-1.1-3.3-2.2-5-3.3,1.6,1.2,3.3,2.3,5,3.3Z"/>
  <path class="cls-1" d="M1382.7,1362.1c25.4,0,46.2-20.7,46.2-46.2s-20.7-46.2-46.2-46.2-46.2,20.7-46.2,46.2,20.7,46.2,46.2,46.2ZM1382.7,1294c12.1,0,21.9,9.8,21.9,21.9s-9.8,21.9-21.9,21.9-21.9-9.8-21.9-21.9,9.8-21.9,21.9-21.9Z"/>
  <path class="cls-1" d="M1382.7,1435.2c-23.1,0-41.8,18.7-41.8,41.8s18.7,41.8,41.8,41.8,41.8-18.7,41.8-41.8-18.7-41.8-41.8-41.8Z"/>
  <path class="cls-1" d="M771.7,1252.7c7.6,0,13.8-6.2,13.8-13.8s-6.2-13.8-13.8-13.8-13.8,6.2-13.8,13.8,6.2,13.8,13.8,13.8Z"/>
  <path class="cls-1" d="M1745,1252.7c7.6,0,13.8-6.2,13.8-13.8s-6.2-13.8-13.8-13.8-13.8,6.2-13.8,13.8,6.2,13.8,13.8,13.8Z"/>
  <path class="cls-1" d="M771.7,1565.6c7.6,0,13.8-6.2,13.8-13.8s-6.2-13.8-13.8-13.8-13.8,6.2-13.8,13.8,6.2,13.8,13.8,13.8Z"/>
  <path class="cls-1" d="M1745,1537.9c-7.6,0-13.8,6.2-13.8,13.8s6.2,13.8,13.8,13.8,13.8-6.2,13.8-13.8-6.2-13.8-13.8-13.8Z"/>
  <path class="cls-1" d="M635.1,2327.4c-84.6,0-153.2,68.6-153.2,153.2s68.6,153.2,153.2,153.2,153.2-68.6,153.2-153.2-68.6-153.2-153.2-153.2ZM635.1,2599.3c-65.5,0-118.7-53.1-118.7-118.7s53.1-118.7,118.7-118.7,118.7,53.1,118.7,118.7-53.1,118.7-118.7,118.7Z"/>
  <path class="cls-1" d="M635.1,2421.7c-32.5,0-58.9,26.4-58.9,58.9s26.4,58.9,58.9,58.9,58.9-26.4,58.9-58.9-26.4-58.9-58.9-58.9Z"/>
  <path class="cls-1" d="M2756.2,2327.4c-84.6,0-153.2,68.6-153.2,153.2s68.6,153.2,153.2,153.2,153.2-68.6,153.2-153.2-68.6-153.2-153.2-153.2ZM2756.2,2599.3c-65.5,0-118.7-53.1-118.7-118.7s53.1-118.7,118.7-118.7,118.7,53.1,118.7,118.7-53.1,118.7-118.7,118.7Z"/>
  <path class="cls-1" d="M2756.2,2421.7c-32.5,0-58.9,26.4-58.9,58.9s26.4,58.9,58.9,58.9,58.9-26.4,58.9-58.9-26.4-58.9-58.9-58.9Z"/>
</svg>