<?xml version="1.0" encoding="UTF-8"?>
<svg id="katman_1" data-name="katman 1" xmlns="http://www.w3.org/2000/svg" version="1.1" viewBox="0 0 3401.6 3401.6">
  <defs>
    <style>
      .cls-1 {
        fill: #fff;
        stroke-width: 0px;
      }
    </style>
  </defs>
  <rect class="cls-1" x="607.9" y="2595.2" width="2285.4" height="100.1"/>
  <g>
    <rect class="cls-1" x="1893.3" y="954" width="248.5" height="12.9"/>
    <path class="cls-1" d="M1585.3,1011.2c0-17.5-14.2-31.6-31.6-31.6s-31.6,14.2-31.6,31.6,14.2,31.6,31.6,31.6,31.6-14.2,31.6-31.6ZM1539.6,1017.7c-3.6,0-6.5-2.9-6.5-6.5s2.9-6.5,6.5-6.5,6.5,2.9,6.5,6.5-2.9,6.5-6.5,6.5ZM1567.8,1017.7c-3.6,0-6.5-2.9-6.5-6.5s2.9-6.5,6.5-6.5,6.5,2.9,6.5,6.5-2.9,6.5-6.5,6.5Z"/>
    <rect class="cls-1" x="1339.7" y="954" width="248.5" height="12.9"/>
    <rect class="cls-1" x="1893.3" y="1120.3" width="248.5" height="12.9"/>
    <path class="cls-1" d="M1722.1,813.7h-514.3v1714.3h514.3V813.7ZM1603.3,1133.4c0,9.8-8,17.8-17.8,17.8h-244.9c-9.8,0-17.8-8-17.8-17.8v-180c0-9.8,8-17.8,17.8-17.8h244.9c9.8,0,17.8,8,17.8,17.8v180ZM1685.6,1728.5c0,5.3-4.3,9.6-9.6,9.6h-3.1c-5.3,0-9.6-4.3-9.6-9.6v-109.6c0-5.3,4.3-9.6,9.6-9.6h3.1c5.3,0,9.6,4.3,9.6,9.6v109.6Z"/>
    <rect class="cls-1" x="2089.4" y="1078.6" width="36.6" height="11.8"/>
    <rect class="cls-1" x="2089.4" y="1059.5" width="36.6" height="11.8"/>
    <path class="cls-1" d="M2139,1011.2c0-17.5-14.2-31.6-31.6-31.6s-31.6,14.2-31.6,31.6,14.2,31.6,31.6,31.6,31.6-14.2,31.6-31.6ZM2093.3,1017.7c-3.6,0-6.5-2.9-6.5-6.5s2.9-6.5,6.5-6.5,6.5,2.9,6.5,6.5-2.9,6.5-6.5,6.5ZM2121.4,1017.7c-3.6,0-6.5-2.9-6.5-6.5s2.9-6.5,6.5-6.5,6.5,2.9,6.5,6.5-2.9,6.5-6.5,6.5Z"/>
    <rect class="cls-1" x="2089.4" y="1097.7" width="36.6" height="11.8"/>
    <path class="cls-1" d="M2036.9,978.5h-143.5v129.6h143.5v-129.6ZM2028.4,1099.6h-9.7c-1.4-23.6-18.1-43.1-40.3-48.8l20-41.9c.8-1.8,0-3.9-1.7-4.7-1.7-.8-3.9,0-4.7,1.7l-20.8,43.6c-2-.2-4-.4-6.1-.4-28.6,0-51.9,22.3-53.5,50.5h-9.7v-112.6h126.6v112.6Z"/>
    <rect class="cls-1" x="1535.7" y="1059.5" width="36.6" height="11.8"/>
    <rect class="cls-1" x="786" y="954" width="248.5" height="12.9"/>
    <path class="cls-1" d="M1168.4,813.7h-514.3v1714.3h514.3V813.7ZM1049.6,1133.4c0,9.8-8,17.8-17.8,17.8h-244.9c-9.8,0-17.8-8-17.8-17.8v-180c0-9.8,8-17.8,17.8-17.8h244.9c9.8,0,17.8,8,17.8,17.8v180ZM1131.9,1728.5c0,5.3-4.3,9.6-9.6,9.6h-3.1c-5.3,0-9.6-4.3-9.6-9.6v-109.6c0-5.3,4.3-9.6,9.6-9.6h3.1c5.3,0,9.6,4.3,9.6,9.6v109.6Z"/>
    <path class="cls-1" d="M1031.6,1011.2c0-17.5-14.2-31.6-31.6-31.6s-31.6,14.2-31.6,31.6,14.2,31.6,31.6,31.6,31.6-14.2,31.6-31.6ZM985.9,1017.7c-3.6,0-6.5-2.9-6.5-6.5s2.9-6.5,6.5-6.5,6.5,2.9,6.5,6.5-2.9,6.5-6.5,6.5ZM1014.1,1017.7c-3.6,0-6.5-2.9-6.5-6.5s2.9-6.5,6.5-6.5,6.5,2.9,6.5,6.5-2.9,6.5-6.5,6.5Z"/>
    <path class="cls-1" d="M1483.2,978.5h-143.5v129.6h143.5v-129.6ZM1474.7,1099.6h-9.7c-1.4-23.6-18.1-43.1-40.3-48.8l20-41.9c.8-1.8,0-3.9-1.7-4.7-1.7-.8-3.9,0-4.7,1.7l-20.8,43.6c-2-.2-4-.4-6.1-.4-28.6,0-51.9,22.3-53.5,50.5h-9.7v-112.6h126.6v112.6Z"/>
    <rect class="cls-1" x="1535.7" y="1097.7" width="36.6" height="11.8"/>
    <rect class="cls-1" x="1535.7" y="1078.6" width="36.6" height="11.8"/>
    <rect class="cls-1" x="1339.7" y="1120.3" width="248.5" height="12.9"/>
    <path class="cls-1" d="M607.9,769.5v1810.7h2285.4V769.5H607.9ZM1175.3,2540.5h-528V806.8h528v1733.8ZM1728.9,2540.5h-528V806.8h528v1733.8ZM2282.6,2540.5h-528V806.8h528v1733.8ZM2847.4,2540.5h-528V806.8h528v1733.8Z"/>
    <rect class="cls-1" x="2654.2" y="1059.5" width="36.6" height="11.8"/>
    <rect class="cls-1" x="2654.2" y="1078.6" width="36.6" height="11.8"/>
    <rect class="cls-1" x="2654.2" y="1097.7" width="36.6" height="11.8"/>
    <path class="cls-1" d="M2703.8,1011.2c0-17.5-14.2-31.6-31.6-31.6s-31.6,14.2-31.6,31.6,14.2,31.6,31.6,31.6,31.6-14.2,31.6-31.6ZM2658.1,1017.7c-3.6,0-6.5-2.9-6.5-6.5s2.9-6.5,6.5-6.5,6.5,2.9,6.5,6.5-2.9,6.5-6.5,6.5ZM2686.2,1017.7c-3.6,0-6.5-2.9-6.5-6.5s2.9-6.5,6.5-6.5,6.5,2.9,6.5,6.5-2.9,6.5-6.5,6.5Z"/>
    <rect class="cls-1" x="2458.1" y="1120.3" width="248.5" height="12.9"/>
    <rect class="cls-1" x="982.1" y="1078.6" width="36.6" height="11.8"/>
    <rect class="cls-1" x="2458.1" y="954" width="248.5" height="12.9"/>
    <path class="cls-1" d="M929.5,978.5h-143.5v129.6h143.5v-129.6ZM921.1,1099.6h-9.7c-1.4-23.6-18.1-43.1-40.3-48.8l20-41.9c.8-1.8,0-3.9-1.7-4.7-1.7-.8-3.9,0-4.7,1.7l-20.8,43.6c-2-.2-4-.4-6.1-.4-28.6,0-51.9,22.3-53.5,50.5h-9.7v-112.6h126.6v112.6Z"/>
    <path class="cls-1" d="M2275.7,813.7h-514.3v1714.3h514.3V813.7ZM2156.9,1133.4c0,9.8-8,17.8-17.8,17.8h-244.9c-9.8,0-17.8-8-17.8-17.8v-180c0-9.8,8-17.8,17.8-17.8h244.9c9.8,0,17.8,8,17.8,17.8v180ZM2239.2,1728.5c0,5.3-4.3,9.6-9.6,9.6h-3.1c-5.3,0-9.6-4.3-9.6-9.6v-109.6c0-5.3,4.3-9.6,9.6-9.6h3.1c5.3,0,9.6,4.3,9.6,9.6v109.6Z"/>
    <path class="cls-1" d="M2840.6,813.7h-514.3v1714.3h514.3V813.7ZM2721.8,1133.4c0,9.8-8,17.8-17.8,17.8h-244.9c-9.8,0-17.8-8-17.8-17.8v-180c0-9.8,8-17.8,17.8-17.8h244.9c9.8,0,17.8,8,17.8,17.8v180ZM2804,1728.5c0,5.3-4.3,9.6-9.6,9.6h-3.1c-5.3,0-9.6-4.3-9.6-9.6v-109.6c0-5.3,4.3-9.6,9.6-9.6h3.1c5.3,0,9.6,4.3,9.6,9.6v109.6Z"/>
    <rect class="cls-1" x="786" y="1120.3" width="248.5" height="12.9"/>
    <rect class="cls-1" x="982.1" y="1059.5" width="36.6" height="11.8"/>
    <path class="cls-1" d="M2601.7,978.5h-143.5v129.6h143.5v-129.6ZM2593.2,1099.6h-9.7c-1.4-23.6-18.1-43.1-40.3-48.8l20-41.9c.8-1.8,0-3.9-1.7-4.7-1.7-.8-3.9,0-4.7,1.7l-20.8,43.6c-2-.2-4-.4-6.1-.4-28.6,0-51.9,22.3-53.5,50.5h-9.7v-112.6h126.6v112.6Z"/>
    <rect class="cls-1" x="982.1" y="1097.7" width="36.6" height="11.8"/>
  </g>
</svg>